<svg preserveAspectRatio="xMidYMid meet" width="100%" height="100%" overflow="visible" style="display: block;" viewBox="0 0 548.901 474.271" fill="none" xmlns="http://www.w3.org/2000/svg">
<g id="Group">
<path id="Vector" d="M99.1838 383.476L82.418 398.823C89.4412 401.305 96.6378 403.438 103.945 405.283C124.281 402.547 144.476 396.691 164.087 389.435C142.521 388.775 120.852 386.579 99.1838 383.476Z" fill="var(--fill-0, #202DC9)"/>
<path id="Vector_2" d="M164.087 389.444C144.468 396.692 124.281 402.555 103.945 405.292C151.404 417.266 204.208 416.12 253.221 405.364C253.938 397.217 254.632 389.046 255.318 380.835C225.294 388.195 194.797 390.39 164.095 389.452L164.087 389.444Z" fill="var(--fill-0, #202DC9)"/>
<path id="Vector_3" d="M260.938 379.434C259.062 379.935 257.186 380.373 255.302 380.827C254.624 389.037 253.923 397.208 253.205 405.355C262.522 403.31 271.705 400.931 280.675 398.218C273.723 390.787 267.078 384.542 260.93 379.434H260.938Z" fill="var(--fill-0, #202DC9)"/>
<path id="Vector_4" d="M103.945 405.292C96.6378 403.446 89.4412 401.314 82.418 398.832L73.6765 406.836C83.7659 407.233 93.8711 406.653 103.945 405.292Z" fill="var(--fill-0, #202DC9)"/>
<path id="Vector_5" d="M103.945 405.292C93.8711 406.645 83.7659 407.233 73.6765 406.836L60.0321 419.327C112.032 447.928 180.585 441.508 239.198 435.056C242.934 434.626 246.75 434.117 250.588 433.448C251.51 424.1 252.393 414.752 253.221 405.364C204.216 416.128 151.412 417.274 103.945 405.292Z" fill="var(--fill-0, #202DC9)"/>
<path id="Vector_6" d="M280.691 398.219C271.713 400.932 262.53 403.311 253.221 405.356C252.393 414.744 251.51 424.092 250.588 433.441C265.912 430.783 281.534 425.628 293.697 413.129C289.267 407.695 284.924 402.73 280.691 398.219Z" fill="var(--fill-0, #202DC9)"/>
<path id="Vector_7" d="M239.19 435.047C180.577 441.499 112.016 447.928 60.0242 419.318L30.8989 445.978C86.7769 466.76 148.551 468.82 206.195 464.437C219.421 463.848 233.397 463.705 247.459 462.989C248.594 453.131 249.611 443.289 250.588 433.44C246.75 434.108 242.934 434.617 239.198 435.047H239.19Z" fill="var(--fill-0, #202DC9)"/>
<path id="Vector_8" d="M297 417.233C295.888 415.825 294.793 414.473 293.697 413.128C281.534 425.635 265.912 430.782 250.588 433.44C249.619 443.289 248.594 453.131 247.459 462.988C272.777 461.692 298.355 458.509 320.316 447.291C314.38 439.494 306.766 429.637 297 417.233Z" fill="var(--fill-0, #202DC9)"/>
<path id="Vector_9" d="M320.316 447.292C298.355 458.51 272.769 461.692 247.459 462.989C247.025 466.744 246.545 470.508 246.087 474.271H339.998C339.998 474.271 336.262 468.248 320.316 447.3V447.292Z" fill="var(--fill-0, #202DC9)"/>
<path id="Vector_10" d="M206.195 464.437C148.551 468.829 86.7769 466.768 30.8989 445.979L0 474.271H246.087C246.545 470.508 247.025 466.744 247.459 462.989C233.397 463.705 219.421 463.848 206.195 464.437Z" fill="var(--fill-0, #202DC9)"/>
<path id="Vector_11" d="M245.142 403.971C247.412 407.097 249.871 410.288 252.48 413.454C252.677 411.242 252.89 409.031 253.079 406.811C250.415 405.904 247.766 404.965 245.142 403.971Z" fill="var(--fill-0, #202DC9)"/>
<path id="Vector_12" d="M299.908 417.879C283.836 415.603 268.134 411.927 253.087 406.812C252.89 409.031 252.685 411.243 252.488 413.455C259.787 422.31 268.292 430.911 277.562 437.005C284.798 441.763 298.434 444.372 315.799 444.555C309.225 437.076 304.102 427.625 299.916 417.879H299.908Z" fill="var(--fill-0, #202DC9)"/>
<path id="Vector_13" d="M227.186 375.003C227.186 375.003 234.027 388.656 245.149 403.971C247.774 404.966 250.423 405.905 253.087 406.812C253.986 396.652 254.853 386.444 255.696 376.181C240.633 376.754 229.858 375.385 227.186 375.011V375.003Z" fill="var(--fill-0, #202DC9)"/>
<path id="Vector_14" d="M289.795 389.833C287.091 384.28 287.722 377.876 290.126 371.662C277.499 374.582 265.659 375.807 255.696 376.181C254.853 386.444 253.993 396.652 253.087 406.812C268.142 411.927 283.836 415.603 299.908 417.878C295.778 408.268 292.57 398.378 289.795 389.833Z" fill="var(--fill-0, #202DC9)"/>
<path id="Vector_15" d="M346.146 420.702C344.168 418.753 342.244 416.764 340.392 414.703C328.632 399.157 319.464 380.978 318.716 362.17C309.052 366.466 299.38 369.521 290.126 371.661C287.722 377.875 287.091 384.279 289.795 389.833C292.57 398.378 295.778 408.267 299.908 417.878C315.09 420.026 330.586 420.925 346.146 420.702Z" fill="var(--fill-0, #202DC9)"/>
<path id="Vector_16" d="M299.908 417.878C304.094 427.617 309.217 437.076 315.791 444.555C331.209 444.714 349.575 442.932 369.029 439.042C360.815 433.719 353.114 427.569 346.146 420.711C330.586 420.934 315.082 420.035 299.908 417.886V417.878Z" fill="var(--fill-0, #202DC9)"/>
<path id="Vector_17" d="M347.998 118.055L395.096 70.7961L387.008 3.74264C386.685 1.06146 389.483 -0.871859 391.84 0.401107L449.981 31.7479L509.469 3.16185C511.881 2.00027 514.584 4.06088 514.143 6.7182L503.084 73.3261L548.029 122.741C549.819 124.706 548.699 127.897 546.082 128.294L481.006 138.072L449.24 197.114C447.955 199.501 444.542 199.421 443.367 196.979L414.258 136.505L349.677 123.68C347.084 123.163 346.107 119.933 347.991 118.047L347.998 118.055Z" fill="var(--fill-0, #202DC9)"/>
<path id="Vector_18" d="M346.146 420.702C353.114 427.568 360.815 433.71 369.029 439.033C394.899 433.861 422.692 424.935 448.057 411.775C443.02 410.622 438.015 409.301 433.073 407.813C404.996 415.825 375.461 420.28 346.146 420.702Z" fill="var(--fill-0, #202DC9)"/>
<path id="Vector_19" d="M353.13 340.33C342.197 349.846 330.468 356.942 318.716 362.17C319.456 380.978 328.624 399.157 340.392 414.703C342.244 416.764 344.168 418.761 346.146 420.702C375.461 420.288 404.996 415.825 433.073 407.813C397.003 396.945 364.772 376.721 353.13 340.322V340.33Z" fill="var(--fill-0, #202DC9)"/>
<path id="Vector_20" d="M518.825 347.77C470.743 352.289 417.789 333.338 382.176 304.903C377.526 312.922 371.874 320.99 364.993 328.667C361.178 332.924 357.205 336.783 353.13 340.323C364.78 376.722 397.003 396.938 433.073 407.814C450.737 402.778 467.818 396.334 483.898 388.632C489.7 383.97 495.202 379.005 500.262 373.699C507.813 365.79 513.907 357.039 518.825 347.77Z" fill="var(--fill-0, #202DC9)"/>
<path id="Vector_21" d="M448.057 411.776C460.811 405.157 472.926 397.455 483.898 388.632C467.818 396.334 450.745 402.778 433.073 407.814C438.007 409.302 443.02 410.623 448.057 411.776Z" fill="var(--fill-0, #202DC9)"/>
<path id="Vector_22" d="M136.507 336.242L122.255 371.399L220.533 365.154L207.267 336.242H136.507Z" fill="var(--fill-0, #202DC9)"/>
<path id="Vector_23" d="M402.142 192.007C404.357 204.521 405.973 221.794 403.419 241.899C403.049 244.811 402.229 250.611 400.456 258.209C444.494 270.191 492.443 275.577 536.947 266.801C537.317 234.078 531.453 204.689 527.811 189.699C489.077 202.692 441.893 196.987 402.127 192.007H402.142Z" fill="var(--fill-0, #202DC9)"/>
<path id="Vector_24" d="M400.464 258.209C397.594 270.525 392.226 287.583 382.176 304.911C417.797 333.346 470.743 352.297 518.825 347.778C532.162 322.629 536.647 293.605 536.955 266.801C492.451 275.577 444.502 270.191 400.464 258.209Z" fill="var(--fill-0, #202DC9)"/>
<path id="Vector_25" d="M201.781 240.745C194.08 240.387 181.286 240.65 160.099 242.702C111.449 247.412 97.694 277.256 95.7234 311.276C93.7607 345.304 146.336 347.921 146.336 347.921C146.336 347.921 221.187 354.19 239.789 322.868C239.521 290.327 225.097 262.235 201.781 240.745Z" fill="var(--fill-0, #202DC9)"/>
<path id="Vector_26" d="M528.71 124.635C527.165 118.739 522.656 117.809 518.715 118.238C514.427 169.698 450.588 180.892 403.94 181.775C408.472 186.708 411.688 190.392 411.688 190.392L518.636 184.536C518.636 184.536 517.32 142.647 516.886 139.942C516.453 137.237 531.792 136.338 528.718 124.627L528.71 124.635Z" fill="var(--fill-0, #202DC9)"/>
<path id="Vector_27" d="M518.715 118.238C515.152 118.628 512.054 120.132 512.054 120.132C512.054 120.132 516.713 114.475 518.731 107.267C518.675 106.495 518.667 105.755 518.589 104.976C518.667 105.763 518.675 106.495 518.731 107.267C520.575 100.687 520.212 92.8187 512.054 86.796C494.957 74.1857 482.251 102.557 482.251 102.557C482.251 102.557 488.383 73.2787 469.537 68.6244C450.69 63.9701 445.432 99.0085 445.432 99.0085C445.432 99.0085 432.285 64.718 411.68 70.1201C383.879 77.4158 408.614 137.229 408.614 137.229C408.614 137.229 399.407 128.223 382.082 126.871C364.756 125.518 370.92 151.192 382.082 160.198C388.601 165.457 397.571 174.837 403.932 181.759C450.58 180.876 514.419 169.682 518.707 118.222L518.715 118.238Z" fill="var(--fill-0, #202DC9)"/>
<path id="Vector_28" d="M213.163 242.702C213.163 242.702 211.752 241.199 201.781 240.745C225.097 262.235 239.521 290.335 239.789 322.868C241.295 320.33 242.446 317.553 243.139 314.498C252.48 273.747 213.163 242.702 213.163 242.702Z" fill="var(--fill-0, #202DC9)"/>
<path id="Vector_29" d="M221.912 360.228C213.415 363.299 119 365.336 119 365.336L99.1838 383.476C120.86 386.579 142.521 388.775 164.087 389.435C183.998 382.076 203.318 373.308 221.597 364.962C221.597 363.785 221.605 361.995 221.912 360.228Z" fill="var(--fill-0, #202DC9)"/>
<path id="Vector_30" d="M221.999 360.205C221.999 360.205 221.944 360.221 221.912 360.229C221.605 361.995 221.597 363.785 221.597 364.963C203.318 373.309 183.998 382.076 164.087 389.436C194.789 390.374 225.286 388.179 255.31 380.819C255.46 378.989 255.609 377.144 255.759 375.306C239.096 362.56 226.65 358.399 221.999 360.189V360.205Z" fill="var(--fill-0, #202DC9)"/>
<path id="Vector_31" d="M255.759 375.313C255.609 377.151 255.46 378.997 255.31 380.827C257.186 380.365 259.07 379.935 260.946 379.434C259.172 377.962 257.454 376.61 255.767 375.321L255.759 375.313Z" fill="var(--fill-0, #202DC9)"/>
<path id="Vector_32" d="M193.268 290.685C195.467 288.489 199.495 284.161 205.682 276.42C215.764 263.81 212.698 236.338 212.698 236.338C212.698 236.338 203.215 235.12 189.894 234.548C201.481 248.487 199.369 272.752 193.268 290.685Z" fill="var(--fill-0, #202DC9)"/>
<path id="Vector_33" d="M192.889 327.227C185.275 326.631 172.679 323.83 171.394 311.896C169.542 294.671 191.218 292.619 191.218 292.619C191.218 292.619 191.88 292.07 193.268 290.685C199.369 272.752 201.481 248.487 189.894 234.548C167.91 233.601 135.49 234.404 118.023 245.344C89.9693 262.911 86.0281 328.222 83.8368 342.185C81.6455 356.148 70.2476 357.946 70.2476 357.946C70.2476 357.946 110.132 362.902 141.693 362.902C152.232 362.902 164.875 362.051 177.038 360.913C186.788 352.4 191.132 339.241 192.889 327.227Z" fill="var(--fill-0, #202DC9)"/>
<path id="Vector_34" d="M203.491 355.249C193.386 352.894 198.667 327.323 198.667 327.323C198.667 327.323 196.263 327.49 192.881 327.227C191.124 339.241 186.78 352.4 177.03 360.913C193.812 359.346 209.687 357.238 217.869 356.084C214.046 356.418 208.78 356.482 203.491 355.249Z" fill="var(--fill-0, #202DC9)"/>
<path id="Vector_35" d="M217.869 356.083C221.353 355.781 223.654 355.248 223.654 355.248C223.654 355.248 221.51 355.574 217.869 356.083Z" fill="var(--fill-0, #202DC9)"/>
<path id="Vector_36" d="M230.472 270.309C226.728 273.675 219.666 280.047 223.244 285.012C224.285 286.46 226.082 287.104 227.808 287.391C230.449 287.82 233.255 287.55 235.604 286.245C237.37 285.267 238.836 283.644 239.561 281.742C232.9 281.67 230.851 276.849 230.48 270.309H230.472Z" fill="var(--fill-0, #202DC9)"/>
<path id="Vector_37" d="M236.96 269.394C235.107 266.673 233.452 267.596 231.284 269.569C231.04 269.792 230.764 270.039 230.472 270.301C230.843 276.841 232.892 281.662 239.553 281.734C239.797 281.106 239.955 280.437 240.018 279.761C240.302 276.658 238.686 271.924 236.96 269.394Z" fill="var(--fill-0, #202DC9)"/>
<path id="Vector_38" d="M185.33 306.725C185.756 306.287 186.024 305.714 186.41 305.245C188.444 302.755 196.563 303.017 196.499 299.334C196.452 296.7 192.897 296.557 191.013 296.613C187.9 296.716 184.329 297.79 182.13 300.169C180.924 301.474 178.875 305.086 180.128 306.916C181.074 308.3 184.171 307.902 185.33 306.725Z" fill="var(--fill-0, #202DC9)"/>
<path id="Vector_39" d="M177.235 287.844L180.892 281.957L176.581 276.563L183.155 278.321L186.82 272.433L187.222 279.411L193.804 281.169L187.474 283.715L187.876 290.693L183.565 285.29L177.235 287.844Z" fill="var(--fill-0, #202DC9)"/>
<path id="Vector_40" d="M527.827 189.691C526.211 183.04 525.029 179.221 525.029 179.221L401.189 187.05C401.512 188.601 401.835 190.256 402.142 191.999C441.909 196.979 489.093 202.684 527.827 189.691Z" fill="var(--fill-0, #202DC9)"/>
</g>
</svg>
