<svg preserveAspectRatio="xMidYMid meet" width="100%" height="100%" overflow="visible" style="display: block;" viewBox="0 0 548.893 474.27" fill="none" xmlns="http://www.w3.org/2000/svg">
<g id="Group">
<path id="Vector" d="M99.1838 383.476L82.418 398.823C89.4412 401.306 96.6378 403.438 103.945 405.284C124.281 402.547 144.476 396.691 164.087 389.435C142.521 388.775 120.852 386.579 99.1838 383.476Z" fill="var(--fill-0, #F9F9F9)"/>
<path id="Vector_2" d="M164.087 389.443C144.468 396.691 124.281 402.555 103.945 405.292C151.404 417.265 204.208 416.12 253.221 405.363C253.938 397.216 254.632 389.045 255.318 380.835C225.294 388.194 194.797 390.39 164.095 389.451L164.087 389.443Z" fill="var(--fill-0, white)"/>
<path id="Vector_3" d="M260.938 379.434C259.062 379.936 257.186 380.373 255.302 380.827C254.624 389.037 253.922 397.208 253.205 405.355C262.522 403.311 271.705 400.932 280.675 398.219C273.723 390.788 267.078 384.542 260.93 379.434H260.938Z" fill="var(--fill-0, white)"/>
<path id="Vector_4" d="M103.945 405.292C96.6378 403.446 89.4412 401.314 82.418 398.831L73.6765 406.835C83.7659 407.233 93.8711 406.652 103.945 405.292Z" fill="var(--fill-0, #B53C39)"/>
<path id="Vector_5" d="M103.945 405.292C93.8711 406.644 83.7659 407.233 73.6765 406.835L60.0321 419.326C112.032 447.928 180.585 441.507 239.198 435.055C242.935 434.625 246.75 434.116 250.588 433.448C251.511 424.1 252.393 414.751 253.221 405.363C204.216 416.128 151.412 417.273 103.945 405.292Z" fill="var(--fill-0, #C9413A)"/>
<path id="Vector_6" d="M280.691 398.219C271.713 400.932 262.53 403.31 253.221 405.355C252.393 414.743 251.51 424.092 250.588 433.44C265.912 430.783 281.534 425.627 293.697 413.128C289.267 407.694 284.924 402.73 280.691 398.219Z" fill="var(--fill-0, #A52320)"/>
<path id="Vector_7" d="M239.19 435.047C180.577 441.499 112.016 447.928 60.0242 419.318L30.8989 445.979C86.7769 466.76 148.551 468.82 206.195 464.437C219.421 463.848 233.397 463.705 247.459 462.989C248.594 453.131 249.611 443.29 250.588 433.44C246.75 434.108 242.934 434.617 239.198 435.047H239.19Z" fill="var(--fill-0, white)"/>
<path id="Vector_8" d="M297 417.234C295.888 415.825 294.793 414.473 293.697 413.128C281.534 425.635 265.912 430.783 250.588 433.44C249.619 443.29 248.594 453.131 247.459 462.989C272.777 461.692 298.355 458.509 320.316 447.291C314.38 439.495 306.766 429.637 297 417.234Z" fill="var(--fill-0, #F9F9F9)"/>
<path id="Vector_9" d="M320.316 447.291C298.355 458.509 272.769 461.692 247.459 462.989C247.025 466.744 246.545 470.507 246.087 474.27H339.998C339.998 474.27 336.262 468.248 320.316 447.299V447.291Z" fill="var(--fill-0, #A52320)"/>
<path id="Vector_10" d="M206.195 464.437C148.551 468.828 86.7769 466.768 30.8989 445.979L0 474.262H246.087C246.545 470.499 247.025 466.736 247.459 462.981C233.397 463.697 219.421 463.84 206.195 464.429V464.437Z" fill="var(--fill-0, #C9413A)"/>
<path id="Vector_11" d="M245.149 403.971C247.42 407.098 249.879 410.288 252.488 413.454C252.685 411.243 252.898 409.031 253.087 406.811C250.423 405.904 247.774 404.965 245.149 403.971Z" fill="var(--fill-0, #B53C39)"/>
<path id="Vector_12" d="M299.908 417.878C283.836 415.603 268.134 411.927 253.087 406.811C252.89 409.031 252.685 411.243 252.488 413.454C259.787 422.31 268.292 430.91 277.562 437.004C284.798 441.762 298.434 444.372 315.799 444.555C309.225 437.076 304.102 427.624 299.916 417.878H299.908Z" fill="var(--fill-0, #B53C39)"/>
<path id="Vector_13" d="M227.186 375.003C227.186 375.003 234.027 388.656 245.149 403.971C247.774 404.965 250.423 405.904 253.087 406.811C253.986 396.651 254.853 386.444 255.696 376.18C240.633 376.753 229.858 375.385 227.186 375.011V375.003Z" fill="var(--fill-0, #C9413A)"/>
<path id="Vector_14" d="M289.795 389.833C287.091 384.28 287.722 377.875 290.126 371.661C277.499 374.581 265.659 375.806 255.696 376.18C254.853 386.444 253.993 396.651 253.087 406.811C268.142 411.927 283.836 415.603 299.908 417.878C295.778 408.267 292.57 398.378 289.795 389.833Z" fill="var(--fill-0, #C9413A)"/>
<path id="Vector_15" d="M346.146 420.702C344.168 418.753 342.244 416.764 340.392 414.704C328.632 399.157 319.464 380.978 318.716 362.17C309.052 366.466 299.38 369.521 290.126 371.661C287.722 377.875 287.091 384.28 289.795 389.833C292.57 398.378 295.778 408.267 299.908 417.878C315.09 420.026 330.586 420.925 346.146 420.702Z" fill="var(--fill-0, white)"/>
<path id="Vector_16" d="M299.908 417.878C304.094 427.616 309.217 437.076 315.791 444.555C331.209 444.714 349.575 442.932 369.029 439.041C360.815 433.718 353.114 427.568 346.146 420.71C330.586 420.933 315.082 420.034 299.908 417.886V417.878Z" fill="var(--fill-0, #F9F9F9)"/>
<path id="Vector_17" d="M347.998 118.055L395.096 70.7959L387.008 3.74242C386.685 1.06123 389.483 -0.872084 391.84 0.400882L449.981 31.7477L509.461 3.16163C511.873 2.00004 514.577 4.06066 514.135 6.71798L503.076 73.3259L548.021 122.741C549.811 124.706 548.691 127.896 546.074 128.294L480.998 138.072L449.232 197.114C447.947 199.501 444.534 199.421 443.359 196.979L414.25 136.505L349.67 123.68C347.076 123.163 346.099 119.932 347.983 118.047L347.998 118.055Z" fill="var(--fill-0, #C9413A)"/>
<path id="Vector_18" d="M346.146 420.702C353.114 427.568 360.815 433.71 369.029 439.033C394.899 433.862 422.692 424.935 448.057 411.776C443.02 410.622 438.015 409.301 433.073 407.814C404.996 415.825 375.461 420.281 346.146 420.702Z" fill="var(--fill-0, #B53C39)"/>
<path id="Vector_19" d="M353.13 340.331C342.197 349.846 330.468 356.943 318.716 362.17C319.456 380.978 328.624 399.157 340.392 414.704C342.244 416.764 344.168 418.761 346.146 420.702C375.461 420.289 404.996 415.825 433.073 407.814C397.003 396.946 364.772 376.721 353.13 340.323V340.331Z" fill="var(--fill-0, #C9413A)"/>
<path id="Vector_20" d="M518.825 347.769C470.743 352.288 417.789 333.337 382.176 304.902C377.526 312.922 371.874 320.989 364.993 328.667C361.178 332.923 357.205 336.782 353.13 340.323C364.78 376.721 397.003 396.938 433.073 407.814C450.737 402.777 467.818 396.333 483.898 388.632C489.7 383.969 495.202 379.005 500.262 373.698C507.813 365.79 513.907 357.038 518.825 347.769Z" fill="var(--fill-0, white)"/>
<path id="Vector_21" d="M448.057 411.776C460.811 405.156 472.926 397.455 483.898 388.632C467.818 396.333 450.745 402.777 433.073 407.814C438.007 409.301 443.02 410.622 448.057 411.776Z" fill="var(--fill-0, #F9F9F9)"/>
<path id="Vector_22" d="M136.507 336.241L122.255 371.399L220.533 365.153L207.267 336.241H136.507Z" fill="var(--fill-0, #E5A8D9)"/>
<path id="Vector_23" d="M402.142 192.006C404.357 204.521 405.973 221.794 403.419 241.898C403.049 244.81 402.229 250.61 400.456 258.208C444.494 270.19 492.443 275.576 536.947 266.801C537.317 234.078 531.453 204.688 527.811 189.699C489.077 202.691 441.893 196.987 402.127 192.006H402.142Z" fill="var(--fill-0, white)"/>
<path id="Vector_24" d="M400.464 258.208C397.594 270.524 392.226 287.582 382.176 304.91C417.797 333.345 470.743 352.296 518.825 347.777C532.162 322.628 536.647 293.605 536.955 266.801C492.451 275.576 444.502 270.19 400.464 258.208Z" fill="var(--fill-0, #C9413A)"/>
<path id="Vector_25" d="M201.781 240.745C194.08 240.387 181.286 240.649 160.099 242.702C111.449 247.412 97.694 277.255 95.7234 311.275C93.7607 345.303 146.336 347.921 146.336 347.921C146.336 347.921 221.187 354.19 239.789 322.867C239.521 290.327 225.097 262.234 201.781 240.745Z" fill="var(--fill-0, #F4C6E7)"/>
<path id="Vector_26" d="M528.71 124.634C527.165 118.739 522.656 117.808 518.715 118.238C514.427 169.697 450.588 180.892 403.94 181.775C408.472 186.707 411.688 190.391 411.688 190.391L518.636 184.535C518.636 184.535 517.32 142.647 516.886 139.942C516.445 137.237 531.792 136.338 528.718 124.626L528.71 124.634Z" fill="var(--fill-0, #E5A8D9)"/>
<path id="Vector_27" d="M518.715 118.246C515.152 118.636 512.054 120.139 512.054 120.139C512.054 120.139 516.713 114.483 518.731 107.274C518.675 106.503 518.667 105.763 518.589 104.983C518.667 105.771 518.675 106.503 518.731 107.274C520.575 100.695 520.212 92.8262 512.054 86.8034C494.957 74.1931 482.251 102.564 482.251 102.564C482.251 102.564 488.383 73.2861 469.537 68.6319C450.69 63.9776 445.432 99.016 445.432 99.016C445.432 99.016 432.285 64.7254 411.68 70.1276C383.879 77.4233 408.614 137.237 408.614 137.237C408.614 137.237 399.407 128.231 382.082 126.878C364.756 125.525 370.92 151.2 382.082 160.206C388.601 165.465 397.571 174.845 403.932 181.767C450.58 180.884 514.419 169.689 518.707 118.23L518.715 118.246Z" fill="var(--fill-0, #F4C6E7)"/>
<path id="Vector_28" d="M213.163 242.702C213.163 242.702 211.752 241.198 201.781 240.745C225.097 262.234 239.521 290.335 239.789 322.867C241.295 320.329 242.446 317.552 243.139 314.497C252.48 273.746 213.163 242.702 213.163 242.702Z" fill="var(--fill-0, #E5A8D9)"/>
<path id="Vector_29" d="M221.912 360.229C213.415 363.3 119 365.336 119 365.336L99.1838 383.476C120.86 386.579 142.521 388.775 164.087 389.435C183.998 382.076 203.318 373.308 221.597 364.962C221.597 363.785 221.605 361.995 221.912 360.229Z" fill="var(--fill-0, #B53C39)"/>
<path id="Vector_30" d="M221.999 360.205C221.999 360.205 221.944 360.221 221.912 360.229C221.605 361.995 221.597 363.785 221.597 364.962C203.318 373.308 183.998 382.076 164.087 389.435C194.789 390.374 225.286 388.178 255.31 380.819C255.46 378.989 255.609 377.143 255.759 375.305C239.096 362.56 226.65 358.399 221.999 360.189V360.205Z" fill="var(--fill-0, #C9413A)"/>
<path id="Vector_31" d="M255.759 375.313C255.609 377.151 255.46 378.997 255.31 380.827C257.186 380.365 259.07 379.936 260.946 379.434C259.172 377.963 257.454 376.61 255.767 375.321L255.759 375.313Z" fill="var(--fill-0, #C9413A)"/>
<path id="Vector_32" d="M193.268 290.685C195.467 288.489 199.495 284.161 205.682 276.42C215.764 263.809 212.698 236.337 212.698 236.337C212.698 236.337 203.215 235.12 189.894 234.547C201.481 248.486 199.369 272.752 193.268 290.685Z" fill="var(--fill-0, #2B39E2)"/>
<path id="Vector_33" d="M192.889 327.227C185.275 326.63 172.679 323.83 171.394 311.896C169.542 294.671 191.218 292.618 191.218 292.618C191.218 292.618 191.88 292.069 193.268 290.685C199.369 272.752 201.481 248.486 189.894 234.547C167.91 233.6 135.49 234.404 118.023 245.343C89.9693 262.91 86.0281 328.221 83.8368 342.184C81.6455 356.147 70.2476 357.945 70.2476 357.945C70.2476 357.945 110.132 362.902 141.693 362.902C152.232 362.902 164.875 362.051 177.038 360.913C186.788 352.4 191.132 339.241 192.889 327.227Z" fill="var(--fill-0, #2830EB)"/>
<path id="Vector_34" d="M203.491 355.248C193.386 352.893 198.667 327.322 198.667 327.322C198.667 327.322 196.263 327.489 192.881 327.227C191.124 339.241 186.78 352.4 177.03 360.913C193.812 359.345 209.687 357.237 217.869 356.083C214.046 356.418 208.78 356.481 203.491 355.248Z" fill="var(--fill-0, #2B39E2)"/>
<path id="Vector_35" d="M217.869 356.083C221.353 355.781 223.654 355.248 223.654 355.248C223.654 355.248 221.51 355.574 217.869 356.083Z" fill="var(--fill-0, #2830EB)"/>
<path id="Vector_36" d="M230.472 270.309C226.728 273.675 219.666 280.048 223.244 285.012C224.285 286.46 226.082 287.105 227.808 287.391C230.449 287.821 233.255 287.55 235.604 286.245C237.37 285.267 238.836 283.644 239.561 281.742C232.9 281.671 230.851 276.849 230.48 270.309H230.472Z" fill="var(--fill-0, white)"/>
<path id="Vector_37" d="M236.96 269.395C235.107 266.674 233.452 267.596 231.284 269.57C231.04 269.792 230.764 270.039 230.472 270.302C230.843 276.841 232.892 281.663 239.553 281.734C239.797 281.106 239.955 280.437 240.018 279.761C240.302 276.658 238.686 271.925 236.96 269.395Z" fill="var(--fill-0, #39393A)"/>
<path id="Vector_38" d="M185.33 306.724C185.756 306.287 186.024 305.714 186.41 305.244C188.444 302.754 196.563 303.017 196.499 299.333C196.452 296.7 192.897 296.556 191.013 296.612C187.9 296.716 184.329 297.79 182.13 300.168C180.924 301.473 178.875 305.085 180.128 306.915C181.074 308.3 184.171 307.902 185.33 306.724Z" fill="var(--fill-0, #E5A8D9)"/>
<path id="Vector_39" d="M177.235 287.845L180.892 281.957L176.581 276.563L183.163 278.321L186.82 272.434L187.222 279.411L193.804 281.169L187.474 283.715L187.876 290.693L183.565 285.291L177.235 287.845Z" fill="var(--fill-0, white)"/>
<path id="Vector_40" d="M527.827 189.691C526.211 183.04 525.029 179.221 525.029 179.221L401.189 187.05C401.512 188.601 401.835 190.256 402.142 191.998C441.909 196.979 489.093 202.683 527.827 189.691Z" fill="var(--fill-0, #C9413A)"/>
</g>
</svg>
