<svg preserveAspectRatio="xMidYMid meet" width="100%" height="100%" overflow="visible" style="display: block;" viewBox="0 0 90 80" fill="none" xmlns="http://www.w3.org/2000/svg">
<g id="Capa_1" clip-path="url(#clip0_0_173)">
<path id="Vector" d="M50.3207 67.2792C49.9099 72.7738 49.0927 79.952 45.2823 80.004C40.5735 80.068 39.7699 69.8945 39.8512 62.9882C39.8692 61.6526 40.1085 60.3009 38.9347 59.1292C34.4923 65.4996 26.2711 78.9643 21.7744 74.0375C18.9212 70.9143 25.7609 60.041 29.6164 54.1145C26.1627 54.5344 24.244 56.3499 21.6571 57.5256C15.6029 60.2809 7.0566 63.2122 5.84216 60.069C4.09498 55.5421 17.6932 48.8198 24.4923 44.9168C15.4629 44.6048 1.05209 45.1927 0.0453184 40.4579C-0.984027 35.6111 15.6119 35.4911 24.3975 35.0272C17.1785 30.8763 2.79927 24.5619 6.04983 20.087C8.97985 16.056 21.183 23.0142 29.1063 26.1015C26.5645 20.023 17.6932 9.22969 21.8467 5.87053C26.7586 1.89553 34.0318 15.1282 39.2146 20.7228C40.1356 13.0207 39.2236 1.45164 44.1582 0.131967C49.0927 -1.1877 49.5713 8.38191 50.1356 14.4244L50.7993 21.5106L58.1672 11.0012C60.4381 7.75806 64.5916 4.15096 67.481 5.39465C72.5148 7.56611 63.5081 19.3872 61.183 26.0455C68.244 22.5784 80.9257 16.3159 83.7383 19.4671C87.5713 23.7621 73.0024 30.9803 65.9099 35.0792C75.2552 35.4311 89.946 34.8433 90.0002 39.986C90.0498 44.6568 75.1063 44.6328 66.0543 44.8968L79.4042 52.7028C81.8963 54.1625 85.2507 56.7618 84.0047 59.821C82.2169 64.2079 68.56 57.1457 60.8534 54.0505C64.4291 61.1367 73.1198 72.8138 67.0927 74.8213C62.8083 76.2449 55.2778 64.9997 51.016 59.0452C49.955 61.7486 50.5329 64.4679 50.3207 67.2912V67.2792Z" fill="url(#paint0_radial_0_173)"/>
</g>
<defs>
<radialGradient id="paint0_radial_0_173" cx="0" cy="0" r="1" gradientUnits="userSpaceOnUse" gradientTransform="translate(45.0106 39.9674) scale(45.0674 39.9197)">
<stop stop-color="#2830EB"/>
<stop offset="1" stop-color="#C9413A"/>
</radialGradient>
<clipPath id="clip0_0_173">
<rect width="90" height="80" fill="white"/>
</clipPath>
</defs>
</svg>
