<svg preserveAspectRatio="xMidYMid meet" width="100%" height="100%" overflow="visible" style="display: block;" viewBox="0 0 62.9207 56.0181" fill="none" xmlns="http://www.w3.org/2000/svg">
<g id="Group">
<path id="Vector" d="M34.5615 29.7515V43.6853C34.5615 44.3895 33.6645 44.4918 33.5387 43.8057L30.9298 29.6371C30.8806 29.3663 30.6673 29.1737 30.4211 29.1737H20.9973C20.7511 29.1737 20.5433 29.3663 20.4886 29.6371L16.9608 48.8255C16.9116 49.0963 16.6983 49.2889 16.4521 49.2889H12.361C12.0766 49.2889 11.8414 49.0241 11.8414 48.7051V29.7575C11.8414 29.4325 11.6117 29.1737 11.3218 29.1737H5.05378C4.76937 29.1737 4.53418 29.4385 4.53418 29.7575V55.4222C4.53418 55.7472 4.7639 56.006 5.05378 56.006H22.7256C22.9827 56.006 23.2015 55.7893 23.2397 55.5004L23.5023 53.3517C23.5351 53.0628 23.7539 52.8461 24.0164 52.8461H27.3637C27.6208 52.8461 27.8396 53.0567 27.8778 53.3457L28.1623 55.5064C28.2005 55.7954 28.4193 56.006 28.6764 56.006H41.3437C41.6281 56.006 41.8633 55.7412 41.8633 55.4222V46.7549C41.8633 46.4299 42.093 46.1711 42.3829 46.1711H47.814C48.0984 46.1711 48.3336 45.9063 48.3336 45.5873V40.4351C48.3336 40.1101 48.1039 39.8512 47.814 39.8512H42.3829C42.0984 39.8512 41.8633 39.5864 41.8633 39.2674V36.0894C41.8633 35.7644 42.093 35.5056 42.3829 35.5056H50.3956C50.68 35.5056 50.9152 35.7704 50.9152 36.0894V55.4342C50.9152 55.7592 51.1449 56.0181 51.4348 56.0181H57.7028C57.9872 56.0181 58.2224 55.7532 58.2224 55.4342V36.0894C58.2224 35.7644 58.4521 35.5056 58.742 35.5056H62.4011C62.6855 35.5056 62.9207 35.2408 62.9207 34.9218V29.7696C62.9207 29.4445 62.691 29.1857 62.4011 29.1857H35.0811C34.7967 29.1857 34.5615 29.4506 34.5615 29.7696V29.7515ZM24.4594 45.8461L25.165 40.1702C25.247 39.5021 26.1003 39.4961 26.1878 40.1702L26.9316 45.8461C26.9754 46.2012 26.7347 46.5202 26.4175 46.5202H24.9681C24.6563 46.5202 24.4102 46.2072 24.454 45.8521L24.4594 45.8461Z" fill="var(--fill-0, #2830EB)"/>
<path id="Vector_2" d="M56.3136 0C56.051 0 55.8323 0.240757 55.8323 0.541703V17.7618C55.8323 19.5856 55.1595 20.1935 54.3172 20.1935C53.4749 20.1935 52.8022 19.5856 52.8022 17.7618V0.541703C52.8022 0.240757 52.5889 0 52.3209 0H46.1951C45.9325 0 45.7138 0.240757 45.7138 0.541703V2.25709C45.7138 2.75666 45.1778 2.97936 44.8769 2.61823C43.5096 0.950989 41.1194 0 37.8159 0H29.3929C29.1304 0 28.9116 0.240757 28.9116 0.541703V12.1943C28.9116 12.8444 28.0802 12.9407 27.9654 12.3027L25.7776 0.433362C25.7338 0.180568 25.5369 0 25.3072 0H0.481313C0.218778 0 0 0.240757 0 0.541703V5.5675C0 5.86844 0.213309 6.1092 0.481313 6.1092H4.07475C4.33728 6.1092 4.55606 6.34996 4.55606 6.6509V25.3758C4.55606 25.6767 4.76937 25.9175 5.03737 25.9175H17.8687C18.1094 25.9175 18.3118 25.7188 18.3446 25.448L18.6016 23.3293C18.6345 23.0585 18.8368 22.8598 19.0775 22.8598H22.3592C22.5943 22.8598 22.7967 23.0585 22.835 23.3233L23.1139 25.454C23.1468 25.7188 23.3491 25.9175 23.5898 25.9175H38.4011C42.082 25.9175 44.6144 24.515 45.8614 22.1917C46.0583 21.8246 46.5232 21.8366 46.6983 22.2098C48.1969 25.4058 51.216 26.2605 54.3172 26.2605C58.7037 26.2605 62.9152 24.5512 62.9152 16.9613V0.541703C62.9152 0.240757 62.7019 0 62.4339 0H56.3081H56.3136ZM11.6335 17.0576V6.6509C11.6335 6.34996 11.8469 6.1092 12.1149 6.1092H14.0401C14.3464 6.1092 14.5706 6.4282 14.5105 6.76526L12.5852 17.172C12.4649 17.81 11.639 17.7137 11.639 17.0636L11.6335 17.0576ZM19.5041 16.1427L20.2151 10.4609C20.2917 9.84093 21.0793 9.84093 21.1613 10.4609L21.9107 16.1427C21.9544 16.4678 21.7302 16.7627 21.4348 16.7627H19.9799C19.6901 16.7627 19.4658 16.4738 19.5041 16.1427ZM36.0055 6.6509C36.0055 6.34996 36.2188 6.1092 36.4868 6.1092H37.1541C38.3683 6.1092 38.9754 7.06019 38.9754 8.0172C38.9754 8.97421 38.3683 9.96131 37.1541 9.96131H36.4868C36.2242 9.96131 36.0055 9.72055 36.0055 9.4196V6.6509ZM37.7229 19.8143H36.4813C36.2188 19.8143 36 19.5735 36 19.2726V15.4686C36 15.1677 36.2133 14.9269 36.4813 14.9269H37.7229C38.9316 14.9269 39.5442 16.1488 39.5442 17.3706C39.5442 18.5924 38.9371 19.8143 37.7229 19.8143ZM44.9262 13.4643C44.6472 13.1874 44.3409 12.9347 44.0018 12.712C43.7119 12.5193 43.6901 12.0378 43.9635 11.8151C44.3081 11.5383 44.6144 11.2313 44.8824 10.8942C45.1778 10.5211 45.7192 10.7618 45.7192 11.2614V13.0671C45.7192 13.5365 45.2325 13.7773 44.9262 13.4703V13.4643Z" fill="var(--fill-0, #2830EB)"/>
</g>
</svg>
