<svg preserveAspectRatio="xMidYMid meet" width="100%" height="100%" overflow="visible" style="display: block;" viewBox="0 0 120 65" fill="none" xmlns="http://www.w3.org/2000/svg">
<g id="Capa_1" clip-path="url(#clip0_0_168)">
<path id="Vector" d="M83.1944 33.8488H46.7719C46.3889 33.8488 46.0817 34.1552 46.0817 34.5301V50.7024C46.0817 51.5208 44.8864 51.6397 44.718 50.8395L41.2416 34.3884C41.1742 34.0729 40.8923 33.8488 40.5682 33.8488H28.0051C27.6768 33.8488 27.3948 34.0729 27.3317 34.3884L22.6263 56.6555C22.5589 56.971 22.2769 57.1951 21.9529 57.1951H16.5025C16.1195 57.1951 15.8123 56.8887 15.8123 56.5138V34.521C15.8123 34.146 15.5051 33.8397 15.1221 33.8397H6.75926C6.37626 33.8397 6.06902 34.146 6.06902 34.521V64.3142C6.06902 64.6891 6.37626 64.9954 6.75926 64.9954H30.3241C30.6692 64.9954 30.9596 64.7439 31.0059 64.4102L31.3552 61.9137C31.4015 61.5753 31.6919 61.3284 32.037 61.3284H36.4983C36.8392 61.3284 37.1296 61.5753 37.1801 61.9091L37.5631 64.4193C37.6136 64.7531 37.904 65 38.245 65H55.1389C55.5219 65 55.8291 64.6937 55.8291 64.3187V54.2551C55.8291 53.8801 56.1364 53.5738 56.5194 53.5738H63.7626C64.1456 53.5738 64.4529 53.2674 64.4529 52.8925V46.9119C64.4529 46.537 64.1456 46.2307 63.7626 46.2307H56.5194C56.1364 46.2307 55.8291 45.9243 55.8291 45.5494V41.8595C55.8291 41.4846 56.1364 41.1782 56.5194 41.1782H67.2054C67.5884 41.1782 67.8956 41.4846 67.8956 41.8595V64.3142C67.8956 64.6891 68.2029 64.9954 68.5859 64.9954H76.9487C77.3317 64.9954 77.6389 64.6891 77.6389 64.3142V41.8595C77.6389 41.4846 77.9461 41.1782 78.3291 41.1782H83.2071C83.5901 41.1782 83.8973 40.8719 83.8973 40.497V34.521C83.8973 34.146 83.5901 33.8397 83.2071 33.8397L83.1944 33.8488ZM35.2231 53.9899H33.2912C32.8704 53.9899 32.5505 53.6241 32.6094 53.2171L33.5522 46.6284C33.6616 45.8512 34.8022 45.8466 34.9158 46.6239L35.9049 53.2126C35.968 53.6241 35.6439 53.9944 35.2231 53.9944V53.9899Z" fill="var(--fill-0, white)"/>
<path id="Vector_2" d="M83.2492 0H75.0842C74.7306 0 74.4444 0.283483 74.4444 0.630979V20.6211C74.4444 22.7335 73.548 23.4422 72.42 23.4422C71.2921 23.4422 70.3998 22.7335 70.3998 20.6211V0.630979C70.3998 0.283483 70.1136 0 69.7601 0H61.5951C61.2416 0 60.9554 0.283483 60.9554 0.630979V2.61994C60.9554 3.20062 60.2399 3.46124 59.8401 3.03602C58.0177 1.09736 54.8274 0 50.4293 0H39.1961C38.8426 0 38.5564 0.283483 38.5564 0.630979V14.1559C38.5564 14.9103 37.4495 15.0246 37.2938 14.2839L34.3687 0.502954C34.3056 0.210326 34.0446 0.00457231 33.7458 0.00457231H0.639731C0.286195 0 0 0.283483 0 0.630979V6.46525C0 6.81275 0.286195 7.09623 0.639731 7.09623H5.4335C5.78704 7.09623 6.07323 7.37971 6.07323 7.72721V29.464C6.07323 29.8115 6.35943 30.095 6.71296 30.095H23.8215C24.1414 30.095 24.4108 29.8618 24.4529 29.5509L24.798 27.0955C24.8401 26.7846 25.1136 26.5514 25.4293 26.5514H29.8064C30.1221 26.5514 30.3914 26.78 30.4377 27.0864L30.8123 29.5554C30.8586 29.8618 31.1279 30.0904 31.4436 30.0904H51.1953C56.1027 30.0904 59.4823 28.4581 61.1448 25.765C61.4057 25.3443 62.0244 25.3489 62.2601 25.7878C64.2593 29.5006 68.2828 30.4928 72.42 30.4928C78.266 30.4928 83.8889 28.5129 83.8889 19.6975V0.630979C83.8889 0.283483 83.6027 0 83.2492 0ZM19.3392 7.85066L16.7761 19.9261C16.6204 20.6669 15.5135 20.5525 15.5135 19.7981V7.72264C15.5135 7.37514 15.7997 7.09166 16.1532 7.09166H18.7163C19.1204 7.09166 19.4234 7.45744 19.3392 7.85066ZM28.5817 19.4506H26.6372C26.25 19.4506 25.9512 19.1123 26.0059 18.7328L26.9529 12.1349C27.0539 11.4171 28.1061 11.4125 28.2155 12.1303L29.213 18.7282C29.2719 19.1077 28.9731 19.4506 28.5817 19.4506ZM48.0051 7.72264C48.0051 7.37514 48.2912 7.09166 48.6448 7.09166H49.5328C51.1532 7.09166 51.9613 8.19816 51.9613 9.30923C51.9613 10.4203 51.1532 11.568 49.5328 11.568H48.6448C48.2912 11.568 48.0051 11.2845 48.0051 10.937V7.72264ZM50.2946 22.9987H48.6406C48.287 22.9987 48.0008 22.7152 48.0008 22.3678V17.9509C48.0008 17.6034 48.287 17.3199 48.6406 17.3199H50.2946C51.9108 17.3199 52.7231 18.7373 52.7231 20.1593C52.7231 21.5813 51.9108 22.9942 50.2946 22.9942V22.9987ZM60.9554 15.1618C60.9554 15.7059 60.3114 15.9894 59.8948 15.6327C59.5244 15.3127 59.112 15.02 58.6616 14.7549C58.2744 14.5308 58.2449 13.973 58.6111 13.7169C59.0699 13.3923 59.4781 13.0357 59.8359 12.647C60.2273 12.2172 60.9512 12.4916 60.9512 13.0722V15.1664L60.9554 15.1618Z" fill="var(--fill-0, white)"/>
<path id="Vector_3" d="M112.066 52.0238H99.2256C99.1919 52.0238 99.1667 52.0604 99.1835 52.0878L105.606 64.9771C105.623 65.0137 105.673 65.0137 105.69 64.9771L112.109 52.0924C112.125 52.0604 112.1 52.0238 112.066 52.0238Z" fill="var(--fill-0, white)"/>
<path id="Vector_4" d="M117.82 0H93.4722C92.2433 0 91.2584 1.00134 91.2963 2.213L92.4579 38.8235H92.4958L105.644 29.7155L118.906 38.8235H118.944L119.996 2.20843C120.029 1.00134 119.045 0.00457231 117.82 0.00457231V0Z" fill="var(--fill-0, white)"/>
</g>
<defs>
<clipPath id="clip0_0_168">
<rect width="120" height="65" fill="white"/>
</clipPath>
</defs>
</svg>
