<svg preserveAspectRatio="none" width="100%" height="100%" overflow="visible" style="display: block;" viewBox="0 0 592.928 405.853" fill="none" xmlns="http://www.w3.org/2000/svg">
<path id="Vector" d="M592.897 333.71C590.513 287.594 558.488 248.474 523.041 218.666C488.919 189.975 448.835 168.203 405.199 154.857C357.862 140.381 304.712 136.104 256.466 149.329C213.697 161.048 174.084 187.282 152.154 224.053C129.321 262.337 127.546 310.476 149.947 349.309C160.465 367.545 177.26 383.272 197.012 392.751C216.764 402.229 238.947 407.406 260.809 405.44C267.23 404.865 273.779 404.08 280.049 402.599C286.319 401.119 292.193 398.795 298.08 396.376C308.468 392.1 317.941 385.506 326.089 378.192C343.293 362.752 354.972 342.129 362.048 321.027C368.065 303.091 370.538 283.554 369.418 264.794C368.291 246.003 364.405 227.142 356.878 209.653C348.443 190.045 337.495 172.524 322.578 156.548C308.523 141.491 290.786 129.121 271.867 119.898C231.619 100.284 186.999 93.1925 144.135 80.5417C135.284 77.9312 126.548 74.9632 117.984 71.6122L124.513 74.1845C108.723 67.9357 93.533 60.3082 79.8802 50.5617L85.4123 54.5509C76.6565 48.2128 68.6587 41.0449 61.8562 32.8685L66.1248 38.0386C60.7976 31.5217 56.3377 24.5006 52.8818 16.9625L55.6342 23.0645C54.999 21.6411 54.398 20.205 53.8243 18.7625C51.3041 12.3988 47.7184 7.03086 41.271 3.50116C35.4179 0.296988 26.785 -1.05617 20.2215 0.928887C13.658 2.91394 7.23114 6.7564 3.89134 12.6605C0.62668 18.4369 -1.38806 25.9559 1.13898 32.3323C8.03712 49.7638 18.1862 65.1847 32.1123 78.5312C44.5084 90.416 59.4248 100.392 74.9627 108.384C106.715 124.711 141.547 133.213 176.297 141.906C196.308 146.917 216.279 152.234 235.396 159.772L228.866 157.199C242.984 162.842 256.534 169.703 268.773 178.416L263.241 174.427C273.199 181.62 282.057 189.981 289.761 199.268L285.493 194.098C293.736 204.164 300.532 215.149 305.845 226.81C304.93 224.774 304.008 222.744 303.093 220.708C308.728 233.257 312.586 246.399 314.574 259.88L313.597 253.095C315.414 265.95 315.496 278.932 313.707 291.794L314.683 285.009C312.948 296.868 309.615 308.421 304.643 319.457C305.559 317.421 306.481 315.391 307.396 313.355C303.428 321.978 298.51 330.148 292.411 337.616L296.68 332.446C292.083 337.948 286.913 342.939 281.053 347.28C282.897 345.952 284.741 344.618 286.585 343.29C281.354 347.063 275.733 350.197 269.654 352.622L276.183 350.05C269.811 352.501 263.179 354.122 256.356 354.99L263.617 354.077C256.111 354.952 248.577 354.901 241.071 354.007L248.331 354.92C240.142 353.867 232.186 351.843 224.543 348.894L231.072 351.467C223.751 348.556 216.88 344.841 210.569 340.31L216.101 344.299C210.501 340.188 205.529 335.51 201.144 330.269L205.413 335.439C200.468 329.395 196.411 322.84 193.194 315.851L195.947 321.953C192.272 313.738 189.841 305.153 188.543 296.338L189.52 303.123C188.215 293.587 188.263 283.988 189.615 274.458L188.639 281.243C190.032 272.039 192.62 263.077 196.445 254.493L193.693 260.595C197.879 251.454 203.316 242.921 209.797 235.038L205.529 240.208C212.932 231.342 221.517 223.466 231.025 216.579L225.492 220.568C236.215 212.909 247.915 206.609 260.338 201.681L253.809 204.253C267.94 198.751 282.795 195.19 297.95 193.237L290.69 194.149C310.278 191.75 330.064 192.081 349.625 194.52L342.365 193.607C366.672 196.747 390.399 203.034 413.019 211.868L406.49 209.296C430.367 218.723 452.83 230.997 473.347 245.793C471.503 244.465 469.659 243.131 467.815 241.804C486.297 255.239 503.289 270.647 517.673 287.945L513.404 282.775C521.573 292.713 528.744 303.327 534.024 314.868L531.271 308.766C534.761 316.585 537.288 324.684 538.545 333.084L537.568 326.299C537.903 328.763 538.135 331.22 538.265 333.697C538.613 340.437 541.072 346.897 546.269 351.748C551.009 356.177 558.782 359.509 565.584 359.228C572.387 358.947 579.975 356.764 584.899 351.748C589.823 346.731 593.252 340.482 592.904 333.697L592.897 333.71Z" fill="var(--fill-0, #2830EB)"/>
</svg>
