<svg preserveAspectRatio="none" width="100%" height="100%" overflow="visible" style="display: block;" viewBox="0 0 320.204 451.417" fill="none" xmlns="http://www.w3.org/2000/svg">
<path id="Vector" d="M269.634 32.4757C269.899 35.8932 269.88 39.2702 269.565 42.6878L270.465 34.0586C270.006 38.15 269.15 42.0465 267.923 45.8618L270.459 38.1013C269.03 42.29 267.231 46.1541 265.097 49.807L269.03 43.2317C266.218 47.875 262.989 51.942 259.39 55.5706L264.487 50.497C260.548 54.3367 256.325 57.5189 251.801 60.0678L257.817 56.7964C251.927 59.9704 245.741 61.7888 239.423 62.9009L246.112 61.7401C224.981 65.0927 203.863 59.7594 182.732 59.1018C159.034 58.3631 135.531 62.8928 114.004 76.0354C104.86 81.6204 96.3525 89.6651 89.053 98.6433C81.8793 107.475 75.3475 118.28 71.1817 129.945C65.9399 144.606 62.6677 159.762 62.9509 176.094C63.2026 190.365 65.6001 204.531 69.7785 217.714C74.649 233.097 80.6648 247.36 87.4987 261.42C93.5019 273.767 99.6436 285.895 104.099 299.346L101.563 291.585C104.546 300.84 106.742 310.41 107.78 320.355L106.88 311.725C107.686 320.144 107.635 328.578 106.773 336.988L107.673 328.359C106.698 337.231 105.018 346.007 102.381 354.303L104.917 346.542C102.475 353.913 99.329 360.757 95.5408 367.105L99.4737 360.529C95.5785 366.91 91.1359 372.681 86.1709 377.682L91.268 372.608C86.7436 377.106 81.7786 380.759 76.5368 383.681L82.5526 380.41C76.7633 383.502 70.7538 385.572 64.5492 386.709L71.2384 385.548C63.7878 386.79 56.2932 386.685 48.849 385.475L55.5381 386.636C47.6093 385.256 39.6553 382.82 32.2677 378.802L38.2835 382.074C38.164 382.009 38.0507 381.944 37.9374 381.879C31.4937 378.258 25.61 376.091 18.5433 378.607C12.7037 380.686 6.37957 386.506 3.49751 393.528C0.414093 401.061 -1.13391 410.193 0.961557 418.547C2.84307 426.039 6.66903 434.66 12.5275 437.956C26.6295 445.871 41.0649 450.376 56.5449 451.285C77.1095 452.495 99.4108 445.359 116.036 429.319C122.536 423.052 128.684 416.542 133.851 408.424C142.283 395.184 148.683 381.416 152.811 364.994C159.342 339.042 159.506 309.818 152.892 283.89C148.443 266.437 141.717 250.55 134.14 235.11C127.42 221.424 120.686 207.664 115.784 192.687L118.32 200.448C115.816 192.573 113.897 184.488 112.934 176.054L113.834 184.683C113.16 178.051 113.116 171.467 113.802 164.835L112.902 173.464C113.594 167.62 114.847 162.01 116.628 156.563L114.092 164.324C116.068 158.552 118.553 153.194 121.498 148.161L117.565 154.737C121.366 148.421 125.765 142.852 130.654 137.949L125.557 143.023C130.818 137.884 136.487 133.663 142.547 130.31L136.531 133.582C145.19 128.963 154.245 126.081 163.514 124.45L156.825 125.61C168.788 123.638 180.863 123.646 192.882 124.644C205.537 125.7 218.148 127.753 230.84 127.818C257.634 127.94 286.537 118.11 304.074 90.0791C314.212 73.8761 321.637 53.9146 319.97 32.4919C319.284 23.668 317.623 16.0129 312.595 9.53499C308.228 3.90129 301.066 -0.336163 294.799 0.0210167C288.531 0.378197 281.54 3.15446 277.003 9.53499C272.749 15.5096 268.974 24.0657 269.628 32.4919L269.634 32.4757Z" fill="var(--fill-0, #2830EB)"/>
</svg>
