<svg preserveAspectRatio="xMidYMid meet" width="100%" height="100%" overflow="visible" style="display: block;" viewBox="0 0 470 480" fill="none" xmlns="http://www.w3.org/2000/svg">
<g id="Capa_1" clip-path="url(#clip0_0_227)">
<path id="Vector" d="M470 447.1L94.7994 480C69.9673 432.772 42.326 369.247 23.3006 291.37C4.32434 213.704 -0.343964 145.272 0.0163959 92.5706C125.086 81.6067 250.156 70.635 375.217 59.671C373.939 108.144 376.986 169.287 391.826 238.287C410.794 326.505 442.465 397.031 470 447.108V447.1Z" fill="var(--fill-0, white)"/>
<g id="Objeto generativo (-30, 0)">
<path id="Vector_2" d="M314.84 19.5295C316.577 22.0213 318.165 24.6611 319.419 27.4644C319.206 30.2443 317.477 32.448 314.98 33.9197C308.436 37.7742 299.14 38.2181 291.843 36.0767C288.215 35.0099 285.225 32.9386 282.424 30.548C283.129 32.0742 284.103 33.3591 285.233 34.7218L271.327 42.1738C266.396 44.8214 261.572 47.064 256.192 48.8706C252.801 50.0075 249.656 51.339 246.478 52.873C243.694 54.2124 240.074 57.0702 238.722 59.819L236.249 64.8415L235.487 66.6247C233.726 70.7518 231.687 74.6452 229.41 78.5231L226.863 82.8604C224.054 87.6338 219.107 93.0067 214.292 95.7477L210.934 92.9055C208.681 90.9977 206.642 88.8096 204.758 86.5358C201.622 82.7436 198.903 78.671 196.593 74.2714C190.352 62.3808 189.623 50.1943 194.373 38.0546C194.406 38.3193 194.57 38.366 194.84 38.2804C200.59 36.3882 206.323 35.0488 212.408 34.6439C216.847 34.348 221.024 34.7685 225.119 36.1935C228.665 37.4316 231.368 39.5574 233.71 42.5476L234.848 38.6152C235.037 37.9689 235.307 37.0111 235.012 36.3492C234.3 34.714 232.768 33.6238 231.13 32.8996L226.937 31.0542C230.86 31.7472 234.652 32.8996 238.599 34.1611L271.835 16.5783L276.953 13.6582C276.233 10.7771 276.74 7.99715 277.748 5.36517C277.903 4.95247 278.133 4.61763 278.419 4.3996C276.003 11.3377 278.182 19.2259 284.136 24.3341C287.191 26.9505 290.934 28.1107 295.037 28.1263C301.024 28.1496 309.124 26.2652 313.53 22.691C314.513 21.889 314.996 20.7599 314.857 19.5373L314.84 19.5295Z" fill="var(--fill-0, #C9413A)"/>
<path id="Vector_3" d="M319.419 27.4644C321.057 31.1242 322.26 34.971 322.023 38.989C321.72 44.1984 318.477 48.4423 313.12 49.9374C309.705 50.8874 306.118 50.498 302.752 49.2132L292.097 58.4952L269.967 77.5342C271.048 83.2653 270.139 88.942 267.363 94.0034C262.776 102.359 254.66 108.191 244.808 109.998C241.835 109.78 239.075 109.141 236.233 108.137C228.116 105.256 220.794 101.012 214.275 95.7555C219.083 93.0145 224.038 87.6415 226.847 82.8682L229.394 78.5309C231.671 74.6608 233.71 70.7596 235.471 66.6325L236.233 64.8493L238.706 59.8267C240.057 57.078 243.677 54.2202 246.462 52.8808C249.64 51.3468 252.793 50.023 256.175 48.8784C261.556 47.0718 266.372 44.8214 271.31 42.1816L285.217 34.7296C284.087 33.3591 283.112 32.082 282.408 30.5558C285.209 32.9542 288.198 35.0255 291.826 36.0845C299.124 38.2259 308.419 37.782 314.963 33.9275C317.461 32.4558 319.189 30.2521 319.402 27.4722L319.419 27.4644Z" fill="var(--fill-0, #AF312E)"/>
<path id="Vector_4" d="M314.84 19.5298C314.98 20.7523 314.496 21.8814 313.514 22.6834C309.107 26.2654 301.016 28.1421 295.02 28.1187C290.917 28.1031 287.183 26.9429 284.12 24.3265C278.165 19.2183 275.987 11.3379 278.403 4.39202C278.632 3.73013 278.984 3.25513 279.582 2.70226C283.432 -0.871924 289.41 -0.467005 294.398 1.40964C297.805 2.69448 300.721 4.58669 303.538 6.84489C308.116 10.5125 311.63 14.9199 314.848 19.5375L314.84 19.5298Z" fill="var(--fill-0, #E08B89)"/>
<path id="Vector_5" d="M226.929 31.0464L231.122 32.8919C232.76 33.616 234.292 34.7062 235.004 36.3415C235.299 37.0033 235.029 37.9611 234.84 38.6074L233.702 42.5398C231.368 39.5497 228.657 37.4238 225.111 36.1857C221.007 34.7529 216.839 34.3324 212.4 34.6361C206.314 35.041 200.581 36.3804 194.832 38.2726C194.562 38.3583 194.398 38.3115 194.365 38.0468L196.388 34.1611C206.388 28.7259 216.151 27.5968 226.929 31.0386V31.0464Z" fill="var(--fill-0, #E08B89)"/>
<path id="Vector_6" d="M204.75 86.528C206.634 88.8018 208.673 90.9899 210.925 92.8977L188.739 105.372L182.015 109.211L203.022 88.0932C203.636 87.478 203.997 86.8239 204.75 86.5202V86.528Z" fill="var(--fill-0, #C6C6C6)"/>
</g>
<g id="Capa_1_2" clip-path="url(#clip1_0_227)">
<path id="Vector_7" d="M366.326 300.243C361.37 323.154 297.155 321.39 256.573 304.883C262.419 345.611 258.166 407.688 233.141 414.478C207.844 421.344 193.487 358.054 196.806 311.148C158.062 332.71 100.334 347.431 88.3665 327.924C75.2733 306.59 129.252 269.095 177.218 255.857C144.671 226.268 116.189 173.971 133.573 156.314C152.004 137.59 198.4 177.848 223.429 217.233C242.435 173.817 287.487 128.095 305.363 138.645C327.784 151.867 301.735 211.186 271.667 247.373C314.302 250.523 371.938 274.347 366.326 300.243Z" fill="url(#paint0_radial_0_227)"/>
</g>
</g>
<defs>
<radialGradient id="paint0_radial_0_227" cx="0" cy="0" r="1" gradientTransform="matrix(112.969 -95.9874 81.0836 99.4687 217.302 257.703)" gradientUnits="userSpaceOnUse">
<stop stop-color="#2830EB"/>
<stop offset="1" stop-color="#C9413A"/>
</radialGradient>
<clipPath id="clip0_0_227">
<rect width="470" height="480" fill="white"/>
</clipPath>
<clipPath id="clip1_0_227">
<rect width="269.634" height="287.008" fill="white" transform="matrix(0.977374 0.211517 -0.211429 0.977393 133.574 100.915)"/>
</clipPath>
</defs>
</svg>
